# xmcd
#
# Track frame offsets:
#	150
#	2644
#	12757
#	32442
#	47760
#	62525
#	73436
#	92200
#	101938
#	119118
#	134407
#	148004
#	162725
#	179263
#	191969
#	202905
#	219149
#	233630
#	245690
#	257827
#	268410
#	284609
#
# Disc length: 3939 seconds
#
# Revision: 0
# Processed by: cddbd v1.5.2PL0 Copyright (c) Steve Scherf et al.
# Submitted via: EasyCDDAExtractor 9.1.0.1
#
DISCID=5a0f6116
DTITLE=Various Artist - E.H. King CD# 36
DYEAR=2005
DGENRE=Gospel
TTITLE0=Don Powell - Intro
TTITLE1=Blake Cooper - Speaking Of A Fall
TTITLE2=Danny Mack - Don't Worry About Me
TTITLE3=Don Sandifer - Txas Honkytonks
TTITLE4=Jackie McAmis - Where The Soul Never Dies
TTITLE5=Buddy Max - That Old Fishing Hole
TTITLE6=Loman Craig - Whiskey On My Breath
TTITLE7=Don Powell - Dp Boogie
TTITLE8=William Ray - Ghostwriter (in the sky)
TTITLE9=Phil Coley - Dove Of Love
TTITLE10=Ray R. Jones - America, The USA
TTITLE11=Loman Craig - Someone
TTITLE12=Grace Noble - Mending Broken Dreams
TTITLE13=J. Gale Kilgore - Going, Going, Gong
TTITLE14=Linda Roberts - The Lord Is My Medicine
TTITLE15=Dean Holdman - Dear Hank
TTITLE16=Al and Brenda Hooper - Baby You Ain't Done Much Better
TTITLE17=Roger Strong - Diamond In The Rough
TTITLE18=Ray R. Jones - Once In A Lifetime
TTITLE19=Buddy Wood - Cruising
TTITLE20=Jackie McAmis - My Used To Be
TTITLE21=Robert Sharp - My Baby Waits For Me
EXTD=
EXTT0=
EXTT1=
EXTT2=
EXTT3=
EXTT4=
EXTT5=
EXTT6=
EXTT7=
EXTT8=
EXTT9=
EXTT10=
EXTT11=
EXTT12=
EXTT13=
EXTT14=
EXTT15=
EXTT16=
EXTT17=
EXTT18=
EXTT19=
EXTT20=
EXTT21=
PLAYORDER=
